<svg width="80" height="80" viewBox="0 0 80 80" fill="none" xmlns="http://www.w3.org/2000/svg">
<path d="M3.43077 37.5385H5.46346L6.64808 41.577L7.80577 37.5385H9.50192L10.6731 41.577L11.8442 37.5385H13.8769L11.7365 44.0001H9.89231L8.65385 39.9885L7.41539 44.0001H5.57115L3.43077 37.5385ZM18.7341 44.202C17.4957 44.202 16.5219 43.9058 15.813 43.3135C15.104 42.7122 14.7495 41.8731 14.7495 40.7962C14.7495 39.7283 15.0636 38.8847 15.6918 38.2654C16.329 37.6462 17.2354 37.3366 18.411 37.3366C19.1828 37.3366 19.838 37.4802 20.3764 37.7674C20.9149 38.0545 21.3232 38.4539 21.6014 38.9654C21.8796 39.468 22.0187 40.0379 22.0187 40.6751V41.4962H16.688C16.8316 42.3219 17.6034 42.7347 19.0034 42.7347C19.4162 42.7347 19.8425 42.6988 20.2822 42.627C20.7219 42.5552 21.1034 42.4565 21.4264 42.3308V43.7578C21.1123 43.8924 20.7085 44.0001 20.2149 44.0808C19.7213 44.1616 19.2277 44.202 18.7341 44.202ZM20.0937 40.177C20.0668 39.7462 19.9053 39.4142 19.6091 39.1808C19.313 38.9385 18.9046 38.8174 18.3841 38.8174C17.8726 38.8174 17.4687 38.9385 17.1726 39.1808C16.8764 39.4231 16.7149 39.7552 16.688 40.177H20.0937ZM27.5314 44.202C27.0289 44.202 26.5802 44.1302 26.1853 43.9866C25.7994 43.843 25.4404 43.6142 25.1084 43.3001V44.0001H23.143V34.052H25.1757V38.1174C25.4629 37.8661 25.8129 37.6731 26.2257 37.5385C26.6385 37.4039 27.0738 37.3366 27.5314 37.3366C28.2045 37.3366 28.7968 37.4847 29.3084 37.7808C29.8289 38.068 30.2327 38.4719 30.5199 38.9924C30.8071 39.5129 30.9507 40.1097 30.9507 40.7828C30.9507 41.4648 30.8071 42.0661 30.5199 42.5866C30.2327 43.0981 29.8289 43.4975 29.3084 43.7847C28.7968 44.0629 28.2045 44.202 27.5314 44.202ZM27.0199 42.627C27.5673 42.627 28.0116 42.461 28.3526 42.1289C28.7026 41.7879 28.8776 41.3392 28.8776 40.7828C28.8776 40.2263 28.7026 39.7776 28.3526 39.4366C28.0116 39.0956 27.5673 38.9251 27.0199 38.9251C26.5981 38.9251 26.2167 39.0417 25.8757 39.2751C25.5436 39.4994 25.3103 39.7956 25.1757 40.1635V41.3885C25.3193 41.7654 25.5571 42.0661 25.8891 42.2904C26.2212 42.5148 26.5981 42.627 27.0199 42.627ZM48.6239 44.202C47.8341 44.202 47.188 44.0045 46.6854 43.6097C46.1918 43.2058 45.945 42.6584 45.945 41.9674C45.945 41.2494 46.1829 40.693 46.6585 40.2981C47.1341 39.8943 47.8072 39.6924 48.6777 39.6924C49.0636 39.6924 49.4316 39.7328 49.7816 39.8135C50.1316 39.8943 50.4412 40.0065 50.7104 40.1501V39.9885C50.7104 39.5847 50.5668 39.2885 50.2797 39.1001C49.9925 38.9116 49.5527 38.8174 48.9604 38.8174C48.1707 38.8174 47.4438 38.9654 46.7797 39.2616V37.7808C47.0668 37.6552 47.4393 37.552 47.897 37.4712C48.3547 37.3815 48.8124 37.3366 49.27 37.3366C50.4367 37.3366 51.3072 37.5789 51.8816 38.0635C52.4559 38.5392 52.7431 39.2078 52.7431 40.0693V44.0001H50.8316V43.4078C50.2841 43.9372 49.5482 44.202 48.6239 44.202ZM49.1758 42.8558C49.5079 42.8558 49.8085 42.793 50.0777 42.6674C50.347 42.5417 50.5579 42.3667 50.7104 42.1424V41.4962C50.2527 41.1911 49.7502 41.0385 49.2027 41.0385C48.8258 41.0385 48.5341 41.1193 48.3277 41.2808C48.1303 41.4334 48.0316 41.6622 48.0316 41.9674C48.0316 42.2545 48.1303 42.4744 48.3277 42.627C48.5252 42.7795 48.8079 42.8558 49.1758 42.8558ZM56.6599 44.202C55.7804 44.202 55.1208 43.9642 54.6811 43.4885C54.2413 43.0039 54.0214 42.3622 54.0214 41.5635V37.5385H56.0541V41.3481C56.0541 42.1917 56.4445 42.6135 57.2253 42.6135C57.5663 42.6135 57.8849 42.5328 58.1811 42.3712C58.4772 42.2097 58.724 41.9674 58.9214 41.6443V37.5385H60.9541V44.0001H58.9888V43.2193C58.7016 43.5513 58.3516 43.7981 57.9388 43.9597C57.5349 44.1212 57.1086 44.202 56.6599 44.202ZM65.0765 44.202C64.3227 44.202 63.7483 43.9956 63.3534 43.5828C62.9675 43.161 62.7746 42.5776 62.7746 41.8328V39.0058H61.8323V37.5385H62.7746V35.6001H64.8073V37.5385H66.3284V39.0058H64.8073V41.5635C64.8073 41.9404 64.8791 42.2142 65.0227 42.3847C65.1663 42.5462 65.422 42.627 65.79 42.627C66.0861 42.627 66.3688 42.5552 66.6381 42.4116V43.9328C66.2252 44.1122 65.7047 44.202 65.0765 44.202ZM67.5766 34.052H69.6093V38.2789C69.9144 37.9648 70.2599 37.7315 70.6458 37.5789C71.0317 37.4174 71.4445 37.3366 71.8843 37.3366C72.7638 37.3366 73.4189 37.5744 73.8497 38.0501C74.2894 38.5167 74.5093 39.1494 74.5093 39.9481V44.0001H72.4766V40.177C72.4766 39.3424 72.0907 38.9251 71.3189 38.9251C70.9779 38.9251 70.6593 39.0103 70.3631 39.1808C70.067 39.3424 69.8157 39.5847 69.6093 39.9078V44.0001H67.5766V34.052Z" fill="#192066"/>
<path d="M33.3887 36.0214C33.1402 35.7794 33 35.4472 33 35.1003V35.1003C33 33.9552 34.3839 33.3812 35.1943 34.1901L37.0871 36.0793C37.8679 36.8585 39.1321 36.8585 39.9129 36.0793L41.8057 34.1901C42.6161 33.3812 44 33.9552 44 35.1003V35.1003C44 35.4472 43.8598 35.7794 43.6113 36.0214L39.8955 39.6408C39.1189 40.3972 37.8811 40.3972 37.1045 39.6408L33.3887 36.0214Z" fill="#470FE4"/>
<path d="M33.3887 44.9786C33.1402 45.2206 33 45.5528 33 45.8997V45.8997C33 47.0448 34.3839 47.6188 35.1943 46.8099L37.0871 44.9207C37.8679 44.1415 39.1321 44.1415 39.9129 44.9207L41.8057 46.8099C42.6161 47.6188 44 47.0448 44 45.8997V45.8997C44 45.5528 43.8598 45.2206 43.6113 44.9786L39.8955 41.3592C39.1189 40.6028 37.8811 40.6028 37.1045 41.3592L33.3887 44.9786Z" fill="#470FE4"/>
</svg>
