<svg width="73" height="20" viewBox="0 0 73 20" fill="none" xmlns="http://www.w3.org/2000/svg">
<path d="M0.430769 7.53852H2.46346L3.64808 11.577L4.80577 7.53852H6.50192L7.67308 11.577L8.84423 7.53852H10.8769L8.73654 14.0001H6.89231L5.65385 9.98852L4.41539 14.0001H2.57115L0.430769 7.53852ZM15.7341 14.202C14.4957 14.202 13.5219 13.9058 12.813 13.3135C12.104 12.7122 11.7495 11.8731 11.7495 10.7962C11.7495 9.72827 12.0636 8.88468 12.6918 8.26544C13.329 7.64621 14.2354 7.3366 15.411 7.3366C16.1828 7.3366 16.838 7.48019 17.3764 7.76737C17.9149 8.05455 18.3232 8.45391 18.6014 8.96545C18.8796 9.46801 19.0187 10.0379 19.0187 10.6751V11.4962H13.688C13.8316 12.3219 14.6034 12.7347 16.0034 12.7347C16.4162 12.7347 16.8425 12.6988 17.2822 12.627C17.7219 12.5552 18.1034 12.4565 18.4264 12.3308V13.7578C18.1123 13.8924 17.7085 14.0001 17.2149 14.0808C16.7213 14.1616 16.2277 14.202 15.7341 14.202ZM17.0937 10.177C17.0668 9.74621 16.9053 9.41416 16.6091 9.18083C16.313 8.93852 15.9046 8.81737 15.3841 8.81737C14.8726 8.81737 14.4687 8.93852 14.1726 9.18083C13.8764 9.42314 13.7149 9.75519 13.688 10.177H17.0937ZM24.5314 14.202C24.0289 14.202 23.5802 14.1302 23.1853 13.9866C22.7994 13.843 22.4404 13.6142 22.1084 13.3001V14.0001H20.143V4.05198H22.1757V8.11737C22.4629 7.86609 22.8129 7.67314 23.2257 7.53852C23.6385 7.40391 24.0738 7.3366 24.5314 7.3366C25.2045 7.3366 25.7968 7.48468 26.3084 7.78083C26.8289 8.06801 27.2327 8.47186 27.5199 8.99237C27.8071 9.51288 27.9507 10.1097 27.9507 10.7828C27.9507 11.4648 27.8071 12.0661 27.5199 12.5866C27.2327 13.0981 26.8289 13.4975 26.3084 13.7847C25.7968 14.0629 25.2045 14.202 24.5314 14.202ZM24.0199 12.627C24.5673 12.627 25.0116 12.461 25.3526 12.1289C25.7026 11.7879 25.8776 11.3392 25.8776 10.7828C25.8776 10.2263 25.7026 9.77762 25.3526 9.4366C25.0116 9.09557 24.5673 8.92506 24.0199 8.92506C23.5981 8.92506 23.2167 9.04173 22.8757 9.27506C22.5436 9.49942 22.3103 9.79557 22.1757 10.1635V11.3885C22.3193 11.7654 22.5571 12.0661 22.8891 12.2904C23.2212 12.5148 23.5981 12.627 24.0199 12.627ZM45.6239 14.202C44.8341 14.202 44.188 14.0045 43.6854 13.6097C43.1918 13.2058 42.945 12.6584 42.945 11.9674C42.945 11.2494 43.1829 10.693 43.6585 10.2981C44.1341 9.89429 44.8072 9.69237 45.6777 9.69237C46.0636 9.69237 46.4316 9.73275 46.7816 9.81352C47.1316 9.89429 47.4412 10.0065 47.7104 10.1501V9.98852C47.7104 9.58468 47.5668 9.28852 47.2797 9.10006C46.9925 8.9116 46.5527 8.81737 45.9604 8.81737C45.1707 8.81737 44.4438 8.96545 43.7797 9.2616V7.78083C44.0668 7.65519 44.4393 7.55198 44.897 7.47121C45.3547 7.38147 45.8124 7.3366 46.27 7.3366C47.4367 7.3366 48.3072 7.57891 48.8816 8.06352C49.4559 8.53916 49.7431 9.20775 49.7431 10.0693V14.0001H47.8316V13.4078C47.2841 13.9372 46.5482 14.202 45.6239 14.202ZM46.1758 12.8558C46.5079 12.8558 46.8085 12.793 47.0777 12.6674C47.347 12.5417 47.5579 12.3667 47.7104 12.1424V11.4962C47.2527 11.1911 46.7502 11.0385 46.2027 11.0385C45.8258 11.0385 45.5341 11.1193 45.3277 11.2808C45.1303 11.4334 45.0316 11.6622 45.0316 11.9674C45.0316 12.2545 45.1303 12.4744 45.3277 12.627C45.5252 12.7795 45.8079 12.8558 46.1758 12.8558ZM53.6599 14.202C52.7804 14.202 52.1208 13.9642 51.6811 13.4885C51.2413 13.0039 51.0214 12.3622 51.0214 11.5635V7.53852H53.0541V11.3481C53.0541 12.1917 53.4445 12.6135 54.2253 12.6135C54.5663 12.6135 54.8849 12.5328 55.1811 12.3712C55.4772 12.2097 55.724 11.9674 55.9214 11.6443V7.53852H57.9541V14.0001H55.9888V13.2193C55.7016 13.5513 55.3516 13.7981 54.9388 13.9597C54.5349 14.1212 54.1086 14.202 53.6599 14.202ZM62.0765 14.202C61.3227 14.202 60.7483 13.9956 60.3534 13.5828C59.9675 13.161 59.7746 12.5776 59.7746 11.8328V9.00583H58.8323V7.53852H59.7746V5.60006H61.8073V7.53852H63.3284V9.00583H61.8073V11.5635C61.8073 11.9404 61.8791 12.2142 62.0227 12.3847C62.1663 12.5462 62.422 12.627 62.79 12.627C63.0861 12.627 63.3688 12.5552 63.6381 12.4116V13.9328C63.2252 14.1122 62.7047 14.202 62.0765 14.202ZM64.5766 4.05198H66.6093V8.27891C66.9144 7.9648 67.2599 7.73147 67.6458 7.57891C68.0317 7.41737 68.4445 7.3366 68.8843 7.3366C69.7638 7.3366 70.4189 7.57442 70.8497 8.05006C71.2894 8.51673 71.5093 9.14942 71.5093 9.94814V14.0001H69.4766V10.177C69.4766 9.34237 69.0907 8.92506 68.3189 8.92506C67.9779 8.92506 67.6593 9.01032 67.3631 9.18083C67.067 9.34237 66.8157 9.58468 66.6093 9.90775V14.0001H64.5766V4.05198Z" fill="#192066"/>
<path d="M30.3887 6.02144C30.1402 5.77938 30 5.44719 30 5.10027V5.10027C30 3.95523 31.3839 3.38123 32.1943 4.19011L34.0871 6.07928C34.8679 6.85852 36.1321 6.85852 36.9129 6.07929L38.8057 4.19011C39.6161 3.38123 41 3.95523 41 5.10027V5.10027C41 5.44719 40.8598 5.77938 40.6113 6.02144L36.8955 9.64076C36.1189 10.3972 34.8811 10.3972 34.1045 9.64076L30.3887 6.02144Z" fill="#470FE4"/>
<path d="M30.3887 14.9786C30.1402 15.2206 30 15.5528 30 15.8997V15.8997C30 17.0448 31.3839 17.6188 32.1943 16.8099L34.0871 14.9207C34.8679 14.1415 36.1321 14.1415 36.9129 14.9207L38.8057 16.8099C39.6161 17.6188 41 17.0448 41 15.8997V15.8997C41 15.5528 40.8598 15.2206 40.6113 14.9786L36.8955 11.3592C36.1189 10.6028 34.8811 10.6028 34.1045 11.3592L30.3887 14.9786Z" fill="#470FE4"/>
</svg>
